<svg width="23" height="21" viewBox="0 0 23 21" fill="none" xmlns="http://www.w3.org/2000/svg">
<path d="M22.1079 10.329L12.0518 0.280131C11.9794 0.207583 11.8933 0.150026 11.7987 0.110755C11.704 0.0714835 11.6025 0.0512695 11.5 0.0512695C11.3975 0.0512695 11.296 0.0714835 11.2013 0.110755C11.1067 0.150026 11.0206 0.207583 10.9482 0.280131L0.89209 10.329C0.599121 10.6219 0.433105 11.0199 0.433105 11.4349C0.433105 12.2967 1.13379 12.9974 1.99561 12.9974H3.05518V20.1678C3.05518 20.6 3.4043 20.9491 3.83643 20.9491H9.9375V15.4803H12.6719V20.9491H19.1636C19.5957 20.9491 19.9448 20.6 19.9448 20.1678V12.9974H21.0044C21.4194 12.9974 21.8174 12.8338 22.1104 12.5384C22.7183 11.9281 22.7183 10.9393 22.1079 10.329V10.329Z" fill="#6AB1D7"/>
</svg>
