<svg width="25" height="23" viewBox="0 0 25 23" fill="none" xmlns="http://www.w3.org/2000/svg">
<path d="M12.5 1.05078C10.8457 1.05078 9.375 0.5625 9.375 0.5625V0.660156C9.375 1.48896 9.70424 2.28381 10.2903 2.86987C10.8763 3.45592 11.6712 3.78516 12.5 3.78516C13.3288 3.78516 14.1237 3.45592 14.7097 2.86987C15.2958 2.28381 15.625 1.48896 15.625 0.660156V0.5625C15.625 0.5625 14.1543 1.05078 12.5 1.05078Z" fill="#6AB1D7"/>
<path d="M17.1875 1.14844C16.9194 3.48047 14.9028 5.29883 12.5 5.29883C10.0972 5.29883 8.08057 3.48047 7.8125 1.14844L0.78125 3.58984L1.66016 9.15625L4.67334 9.51855C5.01904 9.5625 5.02002 9.5625 5.02002 9.91846L4.6875 22.4375H20.3125L19.98 9.91846C19.9697 9.57666 19.9697 9.57666 20.3267 9.51855L23.3398 9.15625L24.2188 3.58984L17.1875 1.14844Z" fill="#6AB1D7"/>
</svg>
