<svg width="24" height="14" viewBox="0 0 24 14" fill="none" xmlns="http://www.w3.org/2000/svg">
<path fill-rule="evenodd" clip-rule="evenodd" d="M16.0237 0.711216C16.1108 0.62391 16.2143 0.554642 16.3282 0.50738C16.4421 0.460118 16.5642 0.435791 16.6875 0.435791C16.8108 0.435791 16.9329 0.460118 17.0468 0.50738C17.1607 0.554642 17.2641 0.62391 17.3512 0.711216L22.9762 6.33622C23.0635 6.4233 23.1328 6.52676 23.1801 6.64065C23.2273 6.75455 23.2516 6.87665 23.2516 6.99997C23.2516 7.12328 23.2273 7.24538 23.1801 7.35928C23.1328 7.47318 23.0635 7.57663 22.9762 7.66372L17.3512 13.2887C17.1752 13.4648 16.9364 13.5636 16.6875 13.5636C16.4385 13.5636 16.1998 13.4648 16.0237 13.2887C15.8477 13.1127 15.7488 12.8739 15.7488 12.625C15.7488 12.376 15.8477 12.1373 16.0237 11.9612L20.9868 6.99997L16.0237 2.03872C15.9364 1.95163 15.8671 1.84818 15.8199 1.73428C15.7726 1.62038 15.7483 1.49828 15.7483 1.37497C15.7483 1.25165 15.7726 1.12955 15.8199 1.01565C15.8671 0.901756 15.9364 0.798302 16.0237 0.711216Z" fill="white"/>
<path fill-rule="evenodd" clip-rule="evenodd" d="M0.75 7C0.75 6.75136 0.848772 6.5129 1.02459 6.33709C1.2004 6.16127 1.43886 6.0625 1.6875 6.0625H21.375C21.6236 6.0625 21.8621 6.16127 22.0379 6.33709C22.2137 6.5129 22.3125 6.75136 22.3125 7C22.3125 7.24864 22.2137 7.4871 22.0379 7.66291C21.8621 7.83873 21.6236 7.9375 21.375 7.9375H1.6875C1.43886 7.9375 1.2004 7.83873 1.02459 7.66291C0.848772 7.4871 0.75 7.24864 0.75 7Z" fill="white"/>
</svg>
